<svg xmlns="http://www.w3.org/2000/svg" viewBox="0 0 512 512" width="512" height="512">
  <!-- Sonettas — Sonnet Wave logo (launcher foreground) -->
  <g fill="none" stroke="#1A1A1A" stroke-width="3" stroke-linecap="round">
    <!-- Top curve of S -->
    <line x1="180" y1="180" x2="180" y2="165" />
    <line x1="195" y1="175" x2="195" y2="155" />
    <line x1="210" y1="170" x2="210" y2="148" />
    <line x1="225" y1="168" x2="225" y2="145" />
    <line x1="240" y1="170" x2="240" y2="148" />
    <line x1="255" y1="175" x2="255" y2="155" />
    <line x1="270" y1="183" x2="270" y2="163" />
    <line x1="285" y1="193" x2="285" y2="175" />
    <line x1="300" y1="205" x2="300" y2="190" />
    <line x1="315" y1="220" x2="315" y2="208" />
    <!-- Middle diagonal -->
    <line x1="315" y1="235" x2="315" y2="225" />
    <line x1="300" y1="248" x2="300" y2="240" />
    <line x1="285" y1="260" x2="285" y2="252" />
    <line x1="270" y1="268" x2="270" y2="260" />
    <line x1="255" y1="272" x2="255" y2="264" />
    <line x1="240" y1="275" x2="240" y2="265" />
    <line x1="225" y1="278" x2="225" y2="268" />
    <line x1="210" y1="282" x2="210" y2="272" />
    <line x1="195" y1="288" x2="195" y2="278" />
    <line x1="180" y1="295" x2="180" y2="285" />
    <!-- Bottom curve of S -->
    <line x1="180" y1="310" x2="180" y2="325" />
    <line x1="195" y1="315" x2="195" y2="335" />
    <line x1="210" y1="318" x2="210" y2="342" />
    <line x1="225" y1="320" x2="225" y2="345" />
    <line x1="240" y1="318" x2="240" y2="342" />
    <line x1="255" y1="315" x2="255" y2="335" />
    <line x1="270" y1="308" x2="270" y2="325" />
    <line x1="285" y1="298" x2="285" y2="313" />
    <line x1="300" y1="285" x2="300" y2="300" />
    <line x1="315" y1="272" x2="315" y2="285" />
  </g>
  <circle cx="256" cy="256" r="4" fill="#D97757"/>
</svg>
